#!OML:ASF E:\Style4\Style4.ASF
:FULLY-SPECIFIED
:DEGREES
3138
root -0.252919 17.7638 -2.99763 2.44277 -1.251 0.979
lowerback 11.6723 2.68481 -2.15147
upperback 6.58986 3.33551 0.500209
thorax 0.197815 1.60312 1.34768
lowerneck -0.45116 -7.73273 -7.38787
upperneck 18.0379 -10.7282 4.465
head 6.18989 -5.36598 1.99308
rclavicle -1.92821e-014 5.56597e-015
rhumerus 17.1048 17.6212 -55.9715
rradius 101.536
rwrist 17.9538
rhand -23.7507 13.5535
rfingers 7.12502
rthumb 2.71811 -16.409
lclavicle -1.92821e-014 5.56597e-015
lhumerus -44.2762 -44.7616 95.1155
lradius 98.6129
lwrist 2.96509
lhand -17.0141 16.5706
lfingers 7.12502
lthumb 9.22175 46.3489
rfemur -20.7414 0.834829 17.6389
rtibia 33.5683
rfoot -14.1285 -11.0261
rtoes -11.1561
lfemur -18.018 0.993167 -20.0108
ltibia 32.8035
lfoot -17.3063 10.0673
ltoes -14.3213
3139
root -0.240776 17.7718 -3.00084 2.50034 -1.30703 1.04234
lowerback 11.6401 2.70005 -2.30521
upperback 6.60109 3.34112 0.464524
thorax 0.220868 1.60219 1.39779
lowerneck -0.476143 -7.98452 -7.49052
upperneck 18.2516 -11.0695 4.45617
head 6.29058 -5.53595 1.97625
rclavicle 2.18663e-014 -8.34896e-015
rhumerus 17.4183 17.038 -55.7393
rradius 101.623
rwrist 18.635
rhand -24.0056 13.7592
rfingers 7.12502
rthumb 2.47191 -16.2062
lclavicle 2.18663e-014 -8.34896e-015
lhumerus -44.294 -44.7223 95.0918
lradius 98.5382
lwrist 2.94302
lhand -17.0444 16.5094
lfingers 7.12502
lthumb 9.19247 46.289
rfemur -20.7678 0.853175 17.5156
rtibia 33.4552
rfoot -13.9622 -10.9501
rtoes -11.1103
lfemur -17.989 1.03688 -20.1272
ltibia 32.5973
lfoot -17.0314 10.1144
ltoes -14.8323
3140
root -0.22702 17.7802 -3.00236 2.53113 -1.34005 0.975397
lowerback 11.6434 2.70501 -2.28117
upperback 6.59516 3.34972 0.466052
thorax 0.213673 1.60713 1.38461
lowerneck -0.485289 -8.25523 -7.52993
upperneck 18.4291 -11.428 4.3755
head 6.37085 -5.71515 1.92627
rclavicle -1.20265e-014 -3.57812e-015
rhumerus 17.6971 16.4215 -55.5211
rradius 101.565
rwrist 19.137
rhand -24.1127 14.2157
rfingers 7.12502
rthumb 2.36853 -15.7509
lclavicle -1.20265e-014 -3.57812e-015
lhumerus -44.3576 -44.6648 95.1633
lradius 98.4578
lwrist 2.82206
lhand -16.8785 16.7722
lfingers 7.12502
lthumb 9.35262 46.5447
rfemur -20.7378 0.864687 17.5384
rtibia 33.3371
rfoot -13.8449 -10.9007
rtoes -11.3262
lfemur -17.9208 1.06912 -20.1021
ltibia 32.3956
lfoot -16.9386 10.0949
ltoes -14.7873
3141
root -0.213795 17.7901 -3.00626 2.58052 -1.35021 0.906557
lowerback 11.6858 2.69918 -2.22024
upperback 6.56081 3.34606 0.439904
thorax 0.159702 1.60803 1.32101
lowerneck -0.342793 -8.51776 -7.54008
upperneck 18.4218 -11.7846 4.32666
head 6.36589 -5.8931 1.89158
rclavicle 2.76311e-014 -2.14687e-014
rhumerus 17.9385 15.8846 -55.3865
rradius 101.367
rwrist 19.6878
rhand -24.4154 14.6185
rfingers 7.12502
rthumb 2.07615 -15.3512
lclavicle 2.76311e-014 -2.14687e-014
lhumerus -44.5516 -44.6085 95.2845
lradius 98.4119
lwrist 2.75023
lhand -16.8592 16.9152
lfingers 7.12502
lthumb 9.37116 46.6869
rfemur -20.7378 0.832934 17.5648
rtibia 33.2322
rfoot -13.697 -10.8416
rtoes -11.6904
lfemur -17.8782 1.06269 -20.0657
ltibia 32.2015
lfoot -16.9231 10.0571
ltoes -14.4296
3142
root -0.20137 17.7985 -3.01164 2.64704 -1.37027 0.873465
lowerback 11.6971 2.69403 -2.17736
upperback 6.54483 3.3423 0.386924
thorax 0.142341 1.60832 1.24174
lowerneck -0.247137 -8.78343 -7.61702
upperneck 18.4541 -12.1528 4.35108
head 6.39098 -6.07507 1.88607
rclavicle 9.64106e-015 -3.77691e-015
rhumerus 18.1781 15.3357 -55.2837
rradius 101.021
rwrist 20.1878
rhand -25.1034 15.0474
rfingers 7.12502
rthumb 1.41173 -14.9277
lclavicle 9.64106e-015 -3.77691e-015
lhumerus -44.7392 -44.5989 95.3518
lradius 98.4171
lwrist 2.8163
lhand -16.9372 16.8153
lfingers 7.12502
lthumb 9.29591 46.5903
rfemur -20.7833 0.806591 17.5508
rtibia 33.1433
rfoot -13.5418 -10.7599
rtoes -12.0455
lfemur -17.8793 1.0711 -20.074
ltibia 32.0308
lfoot -16.9358 10.0656
ltoes -14.0713
3143
root -0.19011 17.8049 -3.0197 2.70444 -1.38707 0.877215
lowerback 11.7155 2.6757 -2.23562
upperback 6.54132 3.31166 0.380436
thorax 0.127328 1.59175 1.27024
lowerneck -0.212722 -9.06837 -7.87258
upperneck 18.5842 -12.5474 4.43299
head 6.47599 -6.27567 1.91792
rclavicle 1.64991e-014 -6.55989e-015
rhumerus 18.4904 14.8458 -55.1059
rradius 100.603
rwrist 20.6472
rhand -25.7958 15.4033
rfingers 7.12502
rthumb 0.742943 -14.5751
lclavicle 1.64991e-014 -6.55989e-015
lhumerus -44.8599 -44.4393 95.3967
lradius 98.4745
lwrist 2.8344
lhand -16.8541 16.753
lfingers 7.12502
lthumb 9.37611 46.5244
rfemur -20.8623 0.815976 17.4985
rtibia 33.0988
rfoot -13.4262 -10.7105
rtoes -12.1362
lfemur -17.8806 1.08718 -20.1141
ltibia 31.862
lfoot -16.9134 10.0475
ltoes -13.8842
3144
root -0.180486 17.81 -3.02803 2.73602 -1.35913 0.883503
lowerback 11.7474 2.65124 -2.32286
upperback 6.54839 3.27009 0.389654
thorax 0.11422 1.5687 1.3322
lowerneck -0.215742 -9.38375 -8.09256
upperneck 18.7637 -12.9795 4.47818
head 6.58271 -6.49323 1.92582
rclavicle -1.04362e-014 -1.19271e-015
rhumerus 18.8652 14.4131 -54.9125
rradius 100.084
rwrist 20.8561
rhand -26.198 15.6501
rfingers 7.12502
rthumb 0.354505 -14.3294
lclavicle -1.04362e-014 -1.19271e-015
lhumerus -44.9149 -44.208 95.3805
lradius 98.5397
lwrist 2.707
lhand -16.5624 16.7477
lfingers 7.12502
lthumb 9.65761 46.5063
rfemur -20.9361 0.804457 17.4434
rtibia 33.0957
rfoot -13.3511 -10.6658
rtoes -12.0519
lfemur -17.8612 1.04548 -20.1511
ltibia 31.6953
lfoot -16.8705 10.0614
ltoes -13.7835
3145
root -0.171788 17.8136 -3.03358 2.79556 -1.37367 0.917868
lowerback 11.7152 2.64848 -2.46638
upperback 6.54362 3.25323 0.391278
thorax 0.119961 1.55662 1.41736
lowerneck -0.0535587 -9.65024 -8.20702
upperneck 18.7761 -13.349 4.48989
head 6.59435 -6.68017 1.92397
rclavicle -1.82882e-014 -5.36719e-015
rhumerus 19.2243 13.9573 -54.7869
rradius 99.4492
rwrist 20.9889
rhand -26.3152 15.1493
rfingers 7.12502
rthumb 0.24128 -14.8303
lclavicle -1.82882e-014 -5.36719e-015
lhumerus -44.9775 -44.0809 95.3808
lradius 98.565
lwrist 2.72579
lhand -16.5888 16.7026
lfingers 7.12502
lthumb 9.63208 46.4624
rfemur -21.0518 0.84638 17.3535
rtibia 33.1139
rfoot -13.3223 -10.616
rtoes -11.8294
lfemur -17.8721 1.05894 -20.226
ltibia 31.5526
lfoot -16.7403 10.124
ltoes -14.1891
